# xmcd CD database file
#
# Track frame offsets:
#	150
#	13348
#	27116
#	40145
#	54460
#	69389
#	83236
#	96019
#	109079
#	127742
#	141059
#	159322
#	180906
#	212085
#	228182
#	241612
#	255041
#	269039
#	290940
#	304104
#	317574
#
# Disc length: 4426 seconds
#
# Revision: 0
# Processed by: cddbd v1.5.1PL0 Copyright (c) Steve Scherf et al.
# Submitted via: CDex 1.51
#
DISCID=11114815
DTITLE=THE GRATEST JAZZ - (6) Stardust
DYEAR=2002
DGENRE=Jazz
TTITLE0=You Go to My Head
TTITLE1=Stairway to the Stars
TTITLE2=Too Marvelous for Words
TTITLE3=Sweet Lorraine
TTITLE4=String of Pearls
TTITLE5=Stardust
TTITLE6=Trouble in Mind
TTITLE7=I Got It Bad And That Ain't Good
TTITLE8=Never Let Me Go
TTITLE9=I Got the Sun in the Morning
TTITLE10=Have You Met Miss Jones
TTITLE11=Satin Doll
TTITLE12=Come Rain or Come Shine
TTITLE13=I'll Never Be the Same
TTITLE14=Misty
TTITLE15=Blue 'N' Boogie
TTITLE16=Monk's Mood
TTITLE17=I Can't Get Started
TTITLE18=It's a Sin to Tell a Lie
TTITLE19=Mahogany Hall Stomp
TTITLE20=It Don't Mean a Thing (If It Ain't Got That Swing)
EXTD=YEAR: 2002
EXTT0=
EXTT1=
EXTT2=
EXTT3=
EXTT4=
EXTT5=
EXTT6=
EXTT7=
EXTT8=
EXTT9=
EXTT10=
EXTT11=
EXTT12=
EXTT13=
EXTT14=
EXTT15=
EXTT16=
EXTT17=
EXTT18=
EXTT19=
EXTT20=
PLAYORDER=
